<svg viewBox="0 0 40 40" fill="none" xmlns="http://www.w3.org/2000/svg">
<rect width="40" height="40" rx="8" fill="url(#paint0_linear_7544_141023)"/>
<path fill-rule="evenodd" clip-rule="evenodd" d="M11.9209 6H15.1768V9.32063H18.3918V6H21.6477V9.32063H24.8403V6H28.0961V18.8932H24.8726V18.8936H24.8464V22.0994H28.0964V25.3525H21.7559V22.1463H18.3478V25.3525H11.9213V22.0994H15.1658V18.8932H11.9209V6ZM24.8403 12.5738V15.6405H21.6477V12.5738H24.8403ZM15.1768 15.6407H18.3918V12.5738H15.1768V15.6407Z" fill="#F2F2FF"/>
<path fill-rule="evenodd" clip-rule="evenodd" d="M14.3231 29.7373V30.5009H15.5451V29.7373H14.3231ZM5.75781 29.7411H6.52141V31.2642H7.28478V32.0278H6.52141V33.5597H5.75781V29.7411ZM8.04873 30.5047H7.28513V31.2683H8.04873V30.5047ZM8.04935 29.7412H8.81295V30.5048H8.04935V29.7412ZM8.04834 33.5593H8.81194V32.7957H8.04935V32.0326H7.28575V32.7962H8.04834V33.5593ZM10.0548 29.7419H9.29121V33.5605H10.0548V29.7419ZM10.0552 30.5054H10.8188V31.269H10.0552V30.5054ZM11.5744 32.7965H12.338V33.5605H13.1016V29.7419H12.338V32.0329H11.5744V32.7965ZM11.5824 32.0326H10.8188V31.269H11.5824V32.0326ZM13.5594 30.5054H14.323V32.7965H13.5594V30.5054ZM15.5442 30.5013H16.3078V32.7924H15.5442V30.5013ZM14.3231 32.7927V33.5563H15.5451V32.7927H14.3231ZM16.766 29.7419H17.5296V32.7925H18.2204V33.5561H17.4568V32.7966H16.766V29.7419ZM18.2208 29.7419H18.9844V32.7966H18.2208V29.7419ZM20.5128 29.7419H19.7492V32.7966H20.5128V29.7419ZM18.985 32.7925H19.7486V33.5561H18.985V32.7925ZM21.7357 29.7375H20.9721V31.265H21.7357V29.7375ZM22.9578 29.7375H23.7214V31.265H22.9578V29.7375ZM21.7357 32.0326V33.5566H20.9721V32.0291H21.7328V31.269H22.9548V32.0326H21.7357ZM23.7214 32.0291H22.9578V33.5566H23.7214V32.0291ZM24.1781 30.5009H24.9417V29.7377H27.2328V30.5013H24.9417V31.2655H26.4692V32.0291H24.9417V32.792H24.1781V30.5009ZM24.9417 33.5563V32.7927H27.2328V33.5563H24.9417ZM27.6941 29.7419H28.4545V29.7373H29.982V30.5009H28.4577V31.265H29.9841V32.0285H28.4577V33.5605H27.6941V29.7419ZM30.7491 30.5009H29.9855V31.2645H30.7491V30.5009ZM29.9855 32.0291H30.7491V33.5566H29.9855V32.0291ZM31.9691 30.5009H31.206V32.792H31.9696V32.0285H33.4966V31.2649H31.9696V30.5009H34.2602V29.7373H31.9691V30.5009ZM31.9691 32.793V33.5566H34.2602V32.793H31.9691Z" fill="#F2F2FF"/>
<defs>
<linearGradient id="paint0_linear_7544_141023" x1="20" y1="0" x2="20" y2="40" gradientUnits="userSpaceOnUse">
<stop stop-color="#505050"/>
<stop offset="1" stop-color="#212121"/>
</linearGradient>
</defs>
</svg>
